<?xml version="1.0" ?><!DOCTYPE svg  PUBLIC '-//W3C//DTD SVG 1.1//EN'  'http://www.w3.org/Graphics/SVG/1.1/DTD/svg11.dtd'><svg enable-background="new 265.5 -532.5 512 512" height="512px" id="Layer_1" version="1.1" viewBox="265.5 -532.5 512 512" width="512px" xml:space="preserve" xmlns="http://www.w3.org/2000/svg" xmlns:xlink="http://www.w3.org/1999/xlink"><g><g><circle cx="521.5" cy="-276.5" fill="#D9E7B0" r="176.363"/></g><g><circle cx="657.695" cy="-96.082" fill="#D9E7B0" r="23.023"/></g><g><circle cx="684.732" cy="-137.984" fill="#D9E7B0" r="11.511"/></g><g><circle cx="385.306" cy="-96.082" fill="#D9E7B0" r="23.023"/></g><g><circle cx="358.269" cy="-137.984" fill="#D9E7B0" r="11.511"/></g></g><g><g><g><g><g><path d="M570.543-155.335c-1.982-12.607,6.48-29.344,19.131-75.024c7.104-25.655,9.734-73.988,10.621-114.676       H459.872c0.885,40.688,3.516,89.021,10.62,114.676c13.768,49.714,23.07,64.66,19.203,77.444       c9.209,3.452,22.029,6.758,38.243,7.358C548.641-144.789,562.496-150.414,570.543-155.335z" fill="#FFD773"/></g><g><path d="M570.543-155.335c-8.047,4.921-21.902,10.546-42.604,9.778c-16.214-0.601-29.034-3.906-38.243-7.358       c-2.173,7.184-8.503,13.685-20.535,25.286c0,0,15.529,20.504,66.895,18.317c41.811,0,56.145-17.122,56.145-17.122       C578.43-139.711,571.931-146.512,570.543-155.335z" fill="#FFFFFF"/></g></g><g><path d="M536.528-142.598c14.67-0.772,26.106-5.665,34.369-10.967c-3.129-12.853,5.527-28.946,18.777-76.794      c7.104-25.655,9.734-73.988,10.621-114.676h-32.188c0.111,19.684,0.055,96.29-7.18,126.256      c-8.332,34.519-17.259,48.803-43.446,48.208c-12.108-0.275-23.575-6.149-32.409-12.387c5.305,16.481,7.275,24.538,3.661,32.595      C501.184-146.028,518.604-141.656,536.528-142.598z" fill="#EAB750"/></g><g><ellipse cx="529.287" cy="-348.737" fill="#F9C467" rx="72.867" ry="18.833"/></g><g><ellipse cx="524.867" cy="-341.596" fill="#DDA747" rx="12.203" ry="4.693"/></g><g><polygon fill="#DDA747" points="461.507,-354.737 532.376,-344.882 526.276,-339.718 461.037,-348.636     "/></g><g><path d="M528.092-105.106c-45.413,0-64.158-19.05-64.934-19.861c-1.903-1.99-1.84-5.144,0.143-7.055      c12.544-12.097,18.183-18.054,19.53-24.337c1.401-6.537-1.542-15.564-6.886-31.953c-3.447-10.574-7.738-23.732-12.66-41.508      c-13.773-49.733-11.055-179.889-10.933-185.405c0.061-2.723,2.287-4.889,4.997-4.889c0.037,0,0.075,0,0.113,0.001      c2.761,0.061,4.948,2.349,4.888,5.109c-0.03,1.336-2.811,134.196,10.571,182.515c4.862,17.559,9.114,30.599,12.531,41.077      c11.346,34.798,12.167,39.684-11.137,62.623c7.078,4.846,24.062,13.683,53.775,13.683c29.438,0,46.611-8.086,53.985-12.675      c-23.792-23.459-22.906-28.763-11.035-66.494c3.129-9.942,7.021-22.316,11.425-38.214      c13.381-48.319,10.6-181.178,10.569-182.515c-0.061-2.761,2.127-5.048,4.888-5.109c2.808-0.053,5.049,2.127,5.11,4.888      c0.122,5.516,2.842,135.672-10.931,185.405c-4.448,16.065-8.371,28.531-11.522,38.546c-5.674,18.035-8.8,27.969-7.363,35.088      c1.362,6.756,7.16,12.915,20.063,25.357c0.98,0.945,1.532,2.249,1.529,3.61c-0.003,1.362-0.562,2.663-1.546,3.604      C592.474-122.859,573.376-105.106,528.092-105.106z" fill="#58595B"/></g><g><path d="M527.694-387.42c-36.928,0-76.672-8.106-76.672-25.904s39.744-25.904,76.672-25.904      c36.929,0,76.674,8.106,76.674,25.904S564.622-387.42,527.694-387.42z M527.694-429.228c-18.684,0-36.186,2.104-49.28,5.923      c-14.268,4.161-17.392,8.616-17.392,9.981s3.124,5.82,17.392,9.981c13.095,3.819,30.596,5.922,49.28,5.922      s36.186-2.104,49.281-5.922c14.268-4.161,17.393-8.616,17.393-9.981s-3.125-5.82-17.393-9.981      C563.879-427.124,546.378-429.228,527.694-429.228z" fill="#58595B"/></g><g><path d="M527.886-139.128c-24.253,0-40.607-10.754-41.611-11.431c-2.289-1.544-2.894-4.652-1.35-6.941      c1.542-2.285,4.641-2.892,6.932-1.356c1.332,0.887,32.479,21.085,72.159,0.51c2.45-1.271,5.47-0.314,6.74,2.137      c1.271,2.452,0.314,5.469-2.137,6.741C553.721-141.743,539.842-139.128,527.886-139.128z" fill="#58595B"/></g><g><circle cx="591.877" cy="-422.325" fill="#FFD773" r="51.779"/></g></g><g><g><path d="M548.979-393.321c9.309,13.742,25.048,22.775,42.898,22.775c1.86,0,3.695-0.103,5.506-0.294v-38.391      C587.605-398.78,561.278-394.695,548.979-393.321z" fill="#F9E2B4"/></g><g><path d="M643.656-422.325c0-28.597-23.182-51.779-51.779-51.779s-51.779,23.182-51.779,51.779      c0,10.747,3.275,20.729,8.881,29.004c12.299-1.374,38.626-5.459,48.404-15.91v38.391      C623.391-373.59,643.656-395.588,643.656-422.325z" fill="#FFD773"/></g><g><g><path d="M592.77-463.391c-2.465,0-4.464,1.998-4.464,4.464v24.252c0,2.465,1.999,4.464,4.464,4.464       s4.464-1.999,4.464-4.464v-24.252C597.234-461.393,595.235-463.391,592.77-463.391z" fill="#DD921B"/></g><g><path d="M581.164-420.241c0-2.465-1.999-4.464-4.463-4.464h-19.939c-2.465,0-4.463,1.999-4.463,4.464       s1.998,4.463,4.463,4.463h19.939C579.165-415.778,581.164-417.777,581.164-420.241z" fill="#DD921B"/></g><g><path d="M631.752-424.705h-22.615c-2.465,0-4.464,1.999-4.464,4.464s1.999,4.463,4.464,4.463h22.615       c2.465,0,4.464-1.999,4.464-4.463S634.217-424.705,631.752-424.705z" fill="#DD921B"/></g><g><path d="M612.487-408.024c-1.799-1.686-4.623-1.596-6.309,0.204c-1.686,1.798-1.596,4.623,0.203,6.309       l9.523,8.927c0.86,0.808,1.957,1.207,3.052,1.207c1.19,0,2.378-0.474,3.258-1.411c1.685-1.798,1.595-4.623-0.204-6.31       L612.487-408.024z" fill="#DD921B"/></g><g><path d="M572.183-434.474c0.86,0.808,1.958,1.208,3.052,1.208c1.19,0,2.379-0.474,3.258-1.411       c1.686-1.798,1.594-4.623-0.204-6.309l-9.522-8.928c-1.799-1.686-4.623-1.596-6.311,0.204       c-1.686,1.798-1.594,4.623,0.205,6.309L572.183-434.474z" fill="#DD921B"/></g><g><path d="M613.436-433.556l8.927-9.523c0.808-0.861,1.207-1.958,1.207-3.051c0-1.192-0.474-2.379-1.411-3.258       c-1.799-1.687-4.623-1.595-6.31,0.204l-8.927,9.523c-1.686,1.798-1.596,4.623,0.203,6.31       C608.924-431.667,611.748-431.758,613.436-433.556z" fill="#DD921B"/></g><g><path d="M581.118-403.66l-8.927,9.524c-1.687,1.798-1.596,4.623,0.203,6.309s4.623,1.595,6.31-0.204       l8.928-9.523c0.807-0.861,1.206-1.958,1.206-3.052c0-1.191-0.473-2.379-1.41-3.258       C585.629-405.549,582.805-405.458,581.118-403.66z" fill="#DD921B"/></g></g><g><path d="M591.877-365.546c-18.862,0-36.446-9.335-47.038-24.971c-0.982-1.45-1.134-3.308-0.4-4.898      c0.733-1.59,2.245-2.681,3.985-2.875c22.288-2.489,39.226-7.856,45.308-14.357c1.403-1.499,3.581-1.989,5.487-1.234      c1.909,0.754,3.164,2.598,3.164,4.65v38.391c0,2.558-1.93,4.703-4.473,4.972C595.892-365.654,593.863-365.546,591.877-365.546z       M558.5-389.547c8.722,8.881,20.7,14.001,33.377,14.001c0.168,0,0.337-0.001,0.506-0.003v-23.902      C582.672-394.235,569.374-391.239,558.5-389.547z" fill="#58595B"/></g><g><path d="M597.383-365.84c-1.229,0-2.422-0.453-3.345-1.283c-1.054-0.948-1.655-2.299-1.655-3.717v-28.611      c-12.623,6.78-31.308,9.81-42.85,11.099c-1.844,0.202-3.653-0.627-4.694-2.165c-6.373-9.408-9.741-20.407-9.741-31.808      c0-31.308,25.471-56.779,56.779-56.779s56.779,25.471,56.779,56.779c0,29.127-21.816,53.398-50.748,56.457      C597.734-365.849,597.558-365.84,597.383-365.84z M597.384-414.231c0.617,0,1.239,0.114,1.835,0.35      c1.909,0.754,3.164,2.598,3.164,4.65v32.502c21.027-4.784,36.273-23.493,36.273-45.596c0-25.794-20.985-46.779-46.779-46.779      s-46.779,20.985-46.779,46.779c0,8.388,2.211,16.509,6.42,23.667c20.756-2.626,36.417-7.792,42.214-13.989      C594.697-413.678,596.027-414.231,597.384-414.231z" fill="#58595B"/></g></g></g><g><path d="M525.019-338.193c-3.13,0-5.979-2.114-6.781-5.286l-28.038-110.93l-77.419-42.339    c-3.393-1.855-4.638-6.108-2.783-9.5c1.854-3.393,6.112-4.636,9.5-2.783l80.099,43.804c1.709,0.935,2.951,2.538,3.428,4.426    L531.81-346.91c0.948,3.748-1.322,7.555-5.071,8.502C526.163-338.262,525.586-338.193,525.019-338.193z" fill="#58595B"/></g></g></svg>